<?xml version="1.0" encoding="UTF-8" ?>
<!DOCTYPE svg PUBLIC "-//W3C//DTD SVG 1.1//EN" "http://www.w3.org/Graphics/SVG/1.1/DTD/svg11.dtd">
<svg width="121pt" height="137pt" viewBox="0 0 121 137" version="1.1" xmlns="http://www.w3.org/2000/svg">
<path fill="#5062fa" stroke="#5062fa" stroke-width="0.09375" opacity="1.00" d=" M 14.51 0.00 L 106.20 0.00 C 114.07 0.42 120.67 7.27 121.00 15.11 L 121.00 137.00 L 121.00 137.00 C 110.56 127.57 100.12 118.14 89.66 108.72 C 90.60 112.72 91.56 116.71 92.50 120.71 C 66.67 120.74 40.84 120.76 15.01 120.70 C 7.33 120.57 0.60 114.04 0.00 106.42 L 0.00 14.59 C 0.42 6.98 6.96 0.55 14.51 0.00 M 65.12 31.80 C 58.43 49.43 51.71 67.04 45.05 84.67 C 48.63 85.98 52.24 87.19 55.78 88.60 C 62.68 70.99 69.13 53.18 75.95 35.53 C 72.35 34.24 68.76 32.94 65.12 31.80 M 81.21 44.04 C 81.21 48.59 81.16 53.13 81.23 57.68 C 84.89 59.66 88.50 61.71 92.26 63.50 L 92.21 64.15 C 88.56 66.06 84.87 67.92 81.22 69.83 C 81.19 74.37 81.19 78.91 81.22 83.45 C 89.60 78.10 98.25 73.02 106.36 67.34 C 106.28 64.93 106.34 62.52 106.31 60.12 C 97.97 54.72 89.58 49.39 81.21 44.04 M 14.41 60.24 C 14.43 62.69 14.40 65.15 14.45 67.61 C 22.72 72.88 31.00 78.14 39.30 83.36 C 39.31 78.84 39.33 74.33 39.30 69.81 C 35.88 67.61 31.99 66.11 28.72 63.74 C 32.24 61.76 35.78 59.82 39.27 57.78 C 39.38 53.24 39.27 48.71 39.32 44.18 C 30.99 49.49 22.60 54.72 14.41 60.24 Z" />
<path fill="#ffffff" stroke="#ffffff" stroke-width="0.09375" opacity="1.00" d=" M 65.12 31.80 C 68.76 32.94 72.35 34.24 75.95 35.53 C 69.13 53.18 62.68 70.99 55.78 88.60 C 52.24 87.19 48.63 85.98 45.05 84.67 C 51.71 67.04 58.43 49.43 65.12 31.80 Z" />
<path fill="#ffffff" stroke="#ffffff" stroke-width="0.09375" opacity="1.00" d=" M 81.21 44.04 C 89.58 49.39 97.97 54.72 106.31 60.12 C 106.34 62.52 106.28 64.93 106.36 67.34 C 98.25 73.02 89.60 78.10 81.22 83.45 C 81.19 78.91 81.19 74.37 81.22 69.83 C 84.87 67.92 88.56 66.06 92.21 64.15 L 92.26 63.50 C 88.50 61.71 84.89 59.66 81.23 57.68 C 81.16 53.13 81.21 48.59 81.21 44.04 Z" />
<path fill="#ffffff" stroke="#ffffff" stroke-width="0.09375" opacity="1.00" d=" M 14.41 60.24 C 22.60 54.72 30.99 49.49 39.32 44.18 C 39.27 48.71 39.38 53.24 39.27 57.78 C 35.78 59.82 32.24 61.76 28.72 63.74 C 31.99 66.11 35.88 67.61 39.30 69.81 C 39.33 74.33 39.31 78.84 39.30 83.36 C 31.00 78.14 22.72 72.88 14.45 67.61 C 14.40 65.15 14.43 62.69 14.41 60.24 Z" />
</svg>
